<?xml version="1.0" encoding="iso-8859-1"?>
<!-- Uploaded to: SVG Repo, www.svgrepo.com, Generator: SVG Repo Mixer Tools -->
<!DOCTYPE svg PUBLIC "-//W3C//DTD SVG 1.1//EN" "http://www.w3.org/Graphics/SVG/1.1/DTD/svg11.dtd">
<svg fill="#000000" height="800px" width="800px" version="1.1" id="Capa_1" xmlns="http://www.w3.org/2000/svg" xmlns:xlink="http://www.w3.org/1999/xlink" 
	 viewBox="0 0 511 511" xml:space="preserve">
<g>
	<path d="M52,265.5v140c0,5.238,4.262,9.5,9.5,9.5h76c5.238,0,9.5-4.262,9.5-9.5v-140c0-5.238-4.262-9.5-9.5-9.5h-76
		C56.262,256,52,260.262,52,265.5z M67,271h65v129H67V271z"/>
	<path d="M171.5,327c4.142,0,7.5-3.358,7.5-7.5v-8c0-4.142-3.358-7.5-7.5-7.5s-7.5,3.358-7.5,7.5v8
		C164,323.642,167.358,327,171.5,327z"/>
	<path d="M171.5,367c4.142,0,7.5-3.358,7.5-7.5v-8c0-4.142-3.358-7.5-7.5-7.5s-7.5,3.358-7.5,7.5v8
		C164,363.642,167.358,367,171.5,367z"/>
	<path d="M115.5,296h-32c-4.142,0-7.5,3.358-7.5,7.5s3.358,7.5,7.5,7.5h32c4.142,0,7.5-3.358,7.5-7.5S119.642,296,115.5,296z"/>
	<path d="M107.5,320h-16c-4.142,0-7.5,3.358-7.5,7.5s3.358,7.5,7.5,7.5h16c4.142,0,7.5-3.358,7.5-7.5S111.642,320,107.5,320z"/>
	<path d="M491,367.5c0-19.081-6.388-40.988-11.747-56.006c-6.457-18.095-15.3-37.081-24.263-52.091
		C450.79,252.37,443.058,248,434.812,248h-14.717c-8.231,0-15.956,4.357-20.159,11.371c-8.967,14.963-17.796,33.888-24.223,51.921
		C370.37,326.285,364,348.208,364,367.5c0,32.475,24.51,59.318,56,63.042V443.5c0,28.949-23.551,52.5-52.5,52.5
		S315,472.449,315,443.5V271h48.5c12.958,0,23.5-10.542,23.5-23.5v-160c0-12.958-10.542-23.5-23.5-23.5h-48.895
		C310.844,28.087,280.392,0,243.5,0h-64C140.075,0,108,32.075,108,71.5V224H51.5C34.131,224,20,238.131,20,255.5v160
		c0,17.369,14.131,31.5,31.5,31.5h128c17.369,0,31.5-14.131,31.5-31.5v-160c0-17.369-14.131-31.5-31.5-31.5H123V71.5
		c0-31.154,25.346-56.5,56.5-56.5h64c28.61,0,52.305,21.381,55.987,49H251.5C238.542,64,228,74.542,228,87.5v160
		c0,12.958,10.542,23.5,23.5,23.5H300v172.5c0,37.22,30.28,67.5,67.5,67.5s67.5-30.28,67.5-67.5v-12.958
		C466.49,426.818,491,399.975,491,367.5z M196,255.5v160c0,9.098-7.402,16.5-16.5,16.5h-128c-9.098,0-16.5-7.402-16.5-16.5v-160
		c0-9.098,7.402-16.5,16.5-16.5h128C188.598,239,196,246.402,196,255.5z M243,247.5v-160c0-4.687,3.813-8.5,8.5-8.5H300v9h-8.5
		c-4.142,0-7.5,3.358-7.5,7.5s3.358,7.5,7.5,7.5h32c4.142,0,7.5-3.358,7.5-7.5s-3.358-7.5-7.5-7.5H315v-9h48.5
		c4.687,0,8.5,3.813,8.5,8.5v160c0,4.687-3.813,8.5-8.5,8.5h-112C246.813,256,243,252.187,243,247.5z M427.5,416
		c-26.743,0-48.5-21.757-48.5-48.5c0-28.894,17.005-72.388,33.803-100.419c1.531-2.556,4.257-4.081,7.292-4.081h14.717
		c3.04,0,5.769,1.53,7.3,4.094C464.36,304.352,476,345.807,476,367.5C476,394.243,454.243,416,427.5,416z"/>
	<path d="M442.39,305.208c-0.714-1.652-1.22-2.861-1.641-3.868c-1.114-2.666-1.728-4.135-3.856-8.251
		c-1.903-3.68-6.428-5.119-10.107-3.218c-3.679,1.902-5.12,6.427-3.218,10.107c1.848,3.575,2.316,4.694,3.341,7.147
		c0.439,1.051,0.967,2.313,1.713,4.038c1.225,2.832,3.986,4.525,6.888,4.525c0.993,0,2.003-0.199,2.973-0.618
		C442.285,313.425,444.034,309.01,442.39,305.208z"/>
	<path d="M443.449,328.358c-3.963,1.203-6.201,5.392-4.997,9.355C442.082,349.667,444,359.967,444,367.5
		c0,4.674-2.006,9.153-5.504,12.288c-3.085,2.765-3.344,7.506-0.58,10.591c1.481,1.653,3.53,2.495,5.588,2.495
		c1.782,0,3.571-0.631,5.003-1.915C455.175,384.982,459,376.432,459,367.5c0-9.118-2.084-20.606-6.195-34.145
		C451.601,329.391,447.412,327.152,443.449,328.358z"/>
</g>
</svg>